HIERARCHY
ROOT Hips
{
  OFFSET -5.79066 91.4951 -7.59747
  CHANNELS 6 Xposition Yposition Zposition Zrotation Xrotation Yrotation
  JOINT ToSpine
  {
    OFFSET -2.69724 7.43032 -0.144315
    CHANNELS 3 Zrotation Xrotation Yrotation
    JOINT Spine
    {
      OFFSET -0.0310711 10.7595 1.96963
      CHANNELS 3 Zrotation Xrotation Yrotation
      JOINT Spine1
      {
        OFFSET 13.1342 3.43533 0.764692
        CHANNELS 3 Zrotation Xrotation Yrotation
        JOINT Neck
        {
          OFFSET 29.8703 7.82586 -0.130764
          CHANNELS 3 Zrotation Xrotation Yrotation
          JOINT Head
          {
            OFFSET 9.52751 0.295786 -0.907742
            CHANNELS 3 Zrotation Xrotation Yrotation
            End Site
            {
              OFFSET 16.4037 0.713936 2.7358
            }
          }
        }
        JOINT LeftShoulder
        {
          OFFSET 27.5574 4.95586 2.47156
          CHANNELS 3 Zrotation Xrotation Yrotation
          JOINT LeftArm
          {
            OFFSET 1.20734 -0.998971 20.1238
            CHANNELS 3 Zrotation Xrotation Yrotation
            JOINT LeftForeArm
            {
              OFFSET 26.8049 -0.0536703 -0.155908
              CHANNELS 3 Zrotation Xrotation Yrotation
              JOINT LeftHand
              {
                OFFSET 26.6817 0 0.320147
                CHANNELS 3 Zrotation Xrotation Yrotation
                End Site
                {
                  OFFSET 18.6119 0 0.382219
                }
              }
            }
          }
        }
        JOINT RightShoulder
        {
          OFFSET 27.5927 4.71444 -2.65209
          CHANNELS 3 Zrotation Xrotation Yrotation
          JOINT RightArm
          {
            OFFSET 2.83739 -1.17114 -18.7564
            CHANNELS 3 Zrotation Xrotation Yrotation
            JOINT RightForeArm
            {
              OFFSET 28.839 -0.0548439 1.22491
              CHANNELS 3 Zrotation Xrotation Yrotation
              JOINT RightHand
              {
                OFFSET 26.5114 0 -0.101894
                CHANNELS 3 Zrotation Xrotation Yrotation
                End Site
                {
                  OFFSET 18.2168 0 0
                }
              }
            }
          }
        }
      }
    }
  }
  JOINT LeftUpLeg
  {
    OFFSET -4.76168 -1.9167 -10.2353
    CHANNELS 3 Zrotation Xrotation Yrotation
    JOINT LeftLeg
    {
      OFFSET 2.55951 -42.0585 -8.02213
      CHANNELS 3 Zrotation Xrotation Yrotation
      JOINT LeftFoot
      {
        OFFSET 3.16357 -42.5282 -3.95426
        CHANNELS 3 Zrotation Xrotation Yrotation
        JOINT LeftToeBase
        {
          OFFSET 0.346054 -6.02161 12.8035
          CHANNELS 3 Zrotation Xrotation Yrotation
          End Site
          {
            OFFSET 0.134235 -1.35082 5.13018
          }
        }
      }
    }
  }
  JOINT RightUpLeg
  {
    OFFSET -4.94151 -1.41743 10.6446
    CHANNELS 3 Zrotation Xrotation Yrotation
    JOINT RightLeg
    {
      OFFSET -2.56294 -42.0364 -7.94377
      CHANNELS 3 Zrotation Xrotation Yrotation
      JOINT RightFoot
      {
        OFFSET -3.0952 -42.555 -4.02241
        CHANNELS 3 Zrotation Xrotation Yrotation
        JOINT RightToeBase
        {
          OFFSET -0.0828122 -6.13587 12.8035
          CHANNELS 3 Zrotation Xrotation Yrotation
          End Site
          {
            OFFSET -0.131328 -1.35082 5.13018
          }
        }
      }
    }
  }
}
MOTION
Frames:	8
Frame Time:	0.0333333
-2.93319 92.993 -5.48351 71.6763 -31.8842 -7.9633 -70.1915 0 88.8779 73.8552 71.8942 9.04149 5.97516 20.7366 4.67812 -123.716 36.3633 156.429 155.32 77.9685 -127.779 0.819126 -12.7116 -18.3905 -63.9463 31.2398 -149.767 24.0867 -1.04443 -91.626 0.420957 0.000574795 0.358661 -2.13754 7.69471 42.077 -116.901 -6.74996 87.4981 9.7305 -0.356276 87.7923 0.58676 0.000330351 0.0646653 -47.3991 11.8608 99.0002 -3.44673 47.9898 -6.05612 3.17795 -15.3854 -1.296 3.30573 -10.4442 16.8428 -42.9907 -12.8081 78.7332 1.32305 33.5839 -0.808655 -7.65157 0.118837 1.1375 0.929698 -10.869 5.65765 
-2.92622 93.0215 -5.45242 71.6272 -31.9436 -8.06667 -70.1915 0 88.8779 73.6301 71.9616 9.10939 5.97016 20.7773 4.7999 -123.954 36.2059 156.708 157.053 77.9041 -129.198 0.806863 -12.7792 -18.6521 -64.1125 30.9301 -149.533 23.4844 -1.04019 -91.6812 0.420957 0.000574795 0.358661 -2.12154 7.60836 42.194 -116.971 -6.67907 87.6388 9.94504 -0.371847 87.7507 0.58676 0.000330351 0.0646653 -47.4171 11.8646 99.1286 -3.45126 47.9664 -6.12214 2.66784 -15.4341 -1.30327 3.29537 -10.4369 16.877 -42.9725 -12.8364 78.7323 1.3351 33.5311 -0.648169 -7.6606 0.153027 1.1367 0.824696 -10.5248 6.37582 
-2.89724 93.0239 -5.42094 71.5972 -31.9598 -8.19131 -70.1915 0 88.8779 73.8394 71.9645 8.86968 5.90021 20.7978 4.61001 -124.926 35.6043 157.667 160.383 77.2726 -132.138 0.813034 -12.6844 -18.7679 -64.2389 30.3615 -149.481 23.2393 -0.930994 -91.4613 0.420957 0.000574795 0.358661 -2.18905 7.74502 42.5524 -116.993 -6.42297 87.6513 10.5541 -0.402374 87.7098 0.58676 0.000330351 0.0646653 -47.3777 11.7723 99.1339 -3.52185 48.0677 -6.5571 0.972379 -15.5564 -1.32443 3.51429 -10.9093 17.947 -43.065 -12.699 79.3032 1.35172 33.3473 0.0685606 -6.65408 0.78227 0.998849 1.19849 -11.7984 3.67908 
-2.8959 93.0498 -5.41611 71.5571 -31.9817 -8.23325 -70.1915 0 88.8779 74.5084 72.032 8.18239 5.51744 20.8448 4.59628 -124.39 35.5735 157.464 159.632 77.253 -131.225 0.806276 -12.7748 -18.7038 -64.1539 30.489 -149.279 23.3399 -0.954094 -91.5028 0.420957 0.000574795 0.358661 -2.28022 7.89423 43.1335 -116.719 -5.85718 87.182 10.6052 -0.297305 88.2373 0.58676 0.000330351 0.0646653 -47.3988 11.7643 99.1742 -3.46897 47.9595 -6.27841 1.11184 -15.3307 -1.30709 3.71184 -11.0928 17.1761 -42.9543 -12.5629 79.8227 1.37367 33.7723 0.530057 -5.09935 -0.702921 0.829098 0.853173 -8.40158 1.78385 
-2.89977 93.0642 -5.38116 71.5145 -31.9326 -8.19347 -70.1915 0 88.8779 74.8316 72.3733 7.31645 4.68704 20.9479 5.46114 -122.81 35.335 156.386 160.886 77.6131 -131.534 0.753001 -13.2939 -18.8805 -63.912 30.5712 -149.063 23.51 -0.943025 -91.4599 0.420957 0.000574795 0.358661 -2.21641 7.58184 43.5194 -115.933 -4.68105 86.8434 10.2648 -0.186756 88.7682 0.58676 0.000330351 0.0646653 -47.3224 11.7945 99.0694 -3.52279 48.0176 -6.63675 0.989109 -15.3048 -1.30605 3.68905 -11.1709 18.0031 -42.9587 -12.493 79.8043 1.41554 33.7641 0.902844 -5.14269 -0.639049 0.834309 0.990453 -8.64345 0.554342 
-2.85796 93.0426 -5.36453 71.5653 -31.8693 -8.1456 -70.1915 0 88.8779 74.3917 72.2124 8.13785 5.28377 21.0083 4.70327 -122.813 35.2543 156.279 160.713 77.5274 -131.245 0.75805 -13.2679 -18.7906 -64.1204 30.3637 -148.956 23.4325 -0.972708 -91.5358 0.420957 0.000574795 0.358661 -2.20982 7.35782 44.3381 -115.623 -3.94436 87.6181 9.91528 -0.177423 88.7733 0.58676 0.000330351 0.0646653 -47.374 11.7767 99.0334 -3.50003 47.9845 -6.49682 1.17238 -15.2065 -1.29776 3.7345 -11.1987 17.7198 -43.0103 -12.6005 79.6037 1.42404 33.8231 0.861917 -5.18706 -0.600446 0.838656 1.02586 -9.08887 0.81748 
-2.86582 93.0628 -5.31217 71.4956 -31.8114 -8.18214 -70.1915 0 88.8779 74.4044 72.2744 7.64876 4.97278 20.8905 5.34436 -123.086 35.4192 156.531 161.064 77.6534 -131.811 0.765766 -13.1996 -18.7429 -63.9019 30.7074 -149.122 23.5876 -0.963769 -91.4992 0.420957 0.000574795 0.358661 -2.17278 7.38755 43.7245 -115.508 -4.37113 87.2593 10.1081 -0.138979 88.9911 0.58676 0.000330351 0.0646653 -47.316 11.7962 99.0494 -3.49089 47.9511 -6.46887 1.08431 -15.138 -1.29334 3.87632 -11.3711 17.4594 -42.9316 -12.6473 79.5036 1.45408 33.8982 0.995508 -5.43308 -0.532846 0.86724 1.05063 -9.11903 0.57553 
-2.8463 93.0533 -5.2811 71.5217 -31.6846 -8.14794 -70.1915 0 88.8779 73.8458 72.2511 8.35782 5.39845 20.9861 5.01196 -123.073 35.4466 156.459 160.076 77.5686 -130.717 0.745098 -13.365 -18.9242 -64.1804 30.4217 -148.985 23.4221 -0.985326 -91.5657 0.420957 0.000574795 0.358661 -2.15716 7.3047 43.8546 -116.172 -4.49198 87.4626 10.1994 -0.216978 88.5976 0.58676 0.000330351 0.0646653 -47.3017 11.7482 98.9451 -3.47757 47.935 -6.38262 1.07192 -15.3336 -1.30757 3.61683 -10.9863 17.4206 -42.9537 -12.7326 79.3739 1.44312 33.9884 0.872476 -5.31924 -0.732053 0.859111 0.933612 -8.63958 1.19032 
